<mxfile host="app.diagrams.net" agent="Mozilla/5.0 (Macintosh; Intel Mac OS X 10_15_7) AppleWebKit/537.36 (KHTML, like Gecko) Chrome/130.0.0.0 Safari/537.36" version="24.8.6">
  <diagram id="C5RBs43oDa-KdzZeNtuy" name="Page-1">
    <mxGraphModel dx="1026" dy="684" grid="1" gridSize="10" guides="1" tooltips="1" connect="1" arrows="1" fold="1" page="1" pageScale="1" pageWidth="827" pageHeight="1169" math="0" shadow="0">
      <root>
        <mxCell id="WIyWlLk6GJQsqaUBKTNV-0" />
        <mxCell id="WIyWlLk6GJQsqaUBKTNV-1" parent="WIyWlLk6GJQsqaUBKTNV-0" />
        <mxCell id="WIyWlLk6GJQsqaUBKTNV-2" value="" style="rounded=0;html=1;jettySize=auto;orthogonalLoop=1;fontSize=11;endArrow=block;endFill=0;endSize=8;strokeWidth=1;shadow=0;labelBackgroundColor=none;edgeStyle=orthogonalEdgeStyle;entryX=0;entryY=0.5;entryDx=0;entryDy=0;" parent="WIyWlLk6GJQsqaUBKTNV-1" source="WIyWlLk6GJQsqaUBKTNV-3" target="67706t7fIg1zJIgNpnvR-0" edge="1">
          <mxGeometry relative="1" as="geometry">
            <mxPoint x="140" y="420" as="targetPoint" />
          </mxGeometry>
        </mxCell>
        <mxCell id="WIyWlLk6GJQsqaUBKTNV-3" value="Start" style="rounded=1;whiteSpace=wrap;html=1;fontSize=12;glass=0;strokeWidth=1;shadow=0;" parent="WIyWlLk6GJQsqaUBKTNV-1" vertex="1">
          <mxGeometry x="80" y="599.5" width="120" height="40" as="geometry" />
        </mxCell>
        <mxCell id="67706t7fIg1zJIgNpnvR-0" value="Trigger Pressed" style="rounded=0;whiteSpace=wrap;html=1;" parent="WIyWlLk6GJQsqaUBKTNV-1" vertex="1">
          <mxGeometry x="280" y="330" width="120" height="40" as="geometry" />
        </mxCell>
        <mxCell id="67706t7fIg1zJIgNpnvR-3" value="No. of Bullets == 0?" style="rhombus;whiteSpace=wrap;html=1;" parent="WIyWlLk6GJQsqaUBKTNV-1" vertex="1">
          <mxGeometry x="456" y="310" width="140" height="80" as="geometry" />
        </mxCell>
        <mxCell id="67706t7fIg1zJIgNpnvR-4" value="" style="rounded=0;html=1;jettySize=auto;orthogonalLoop=1;fontSize=11;endArrow=block;endFill=0;endSize=8;strokeWidth=1;shadow=0;labelBackgroundColor=none;edgeStyle=orthogonalEdgeStyle;entryX=0;entryY=0.5;entryDx=0;entryDy=0;exitX=1;exitY=0.5;exitDx=0;exitDy=0;" parent="WIyWlLk6GJQsqaUBKTNV-1" source="67706t7fIg1zJIgNpnvR-0" target="67706t7fIg1zJIgNpnvR-3" edge="1">
          <mxGeometry relative="1" as="geometry">
            <mxPoint x="336" y="510" as="sourcePoint" />
            <mxPoint x="430" y="390" as="targetPoint" />
          </mxGeometry>
        </mxCell>
        <mxCell id="67706t7fIg1zJIgNpnvR-5" value="Alert player on screen" style="rounded=1;whiteSpace=wrap;html=1;" parent="WIyWlLk6GJQsqaUBKTNV-1" vertex="1">
          <mxGeometry x="466" y="430" width="120" height="60" as="geometry" />
        </mxCell>
        <mxCell id="67706t7fIg1zJIgNpnvR-6" value="" style="rounded=0;html=1;jettySize=auto;orthogonalLoop=1;fontSize=11;endArrow=block;endFill=0;endSize=8;strokeWidth=1;shadow=0;labelBackgroundColor=none;edgeStyle=orthogonalEdgeStyle;entryX=0.5;entryY=0;entryDx=0;entryDy=0;exitX=0.5;exitY=1;exitDx=0;exitDy=0;" parent="WIyWlLk6GJQsqaUBKTNV-1" source="67706t7fIg1zJIgNpnvR-3" target="67706t7fIg1zJIgNpnvR-5" edge="1">
          <mxGeometry relative="1" as="geometry">
            <mxPoint x="450" y="690" as="sourcePoint" />
            <mxPoint x="506" y="690" as="targetPoint" />
          </mxGeometry>
        </mxCell>
        <mxCell id="67706t7fIg1zJIgNpnvR-7" value="Yes" style="text;html=1;align=center;verticalAlign=middle;whiteSpace=wrap;rounded=0;" parent="WIyWlLk6GJQsqaUBKTNV-1" vertex="1">
          <mxGeometry x="520" y="390" width="60" height="30" as="geometry" />
        </mxCell>
        <mxCell id="67706t7fIg1zJIgNpnvR-8" value="" style="rounded=0;html=1;jettySize=auto;orthogonalLoop=1;fontSize=11;endArrow=block;endFill=0;endSize=8;strokeWidth=1;shadow=0;labelBackgroundColor=none;edgeStyle=orthogonalEdgeStyle;exitX=1;exitY=0.5;exitDx=0;exitDy=0;entryX=0;entryY=0.5;entryDx=0;entryDy=0;" parent="WIyWlLk6GJQsqaUBKTNV-1" source="67706t7fIg1zJIgNpnvR-3" target="67706t7fIg1zJIgNpnvR-9" edge="1">
          <mxGeometry relative="1" as="geometry">
            <mxPoint x="410" y="360" as="sourcePoint" />
            <mxPoint x="670" y="350" as="targetPoint" />
          </mxGeometry>
        </mxCell>
        <mxCell id="67706t7fIg1zJIgNpnvR-9" value="1. Transmit IR pulse&lt;div&gt;2. Bullets --&lt;/div&gt;&lt;div&gt;3. OLED Display current bullet count&lt;/div&gt;" style="rounded=0;whiteSpace=wrap;html=1;" parent="WIyWlLk6GJQsqaUBKTNV-1" vertex="1">
          <mxGeometry x="650" y="315" width="120" height="70" as="geometry" />
        </mxCell>
        <mxCell id="67706t7fIg1zJIgNpnvR-10" value="" style="rounded=0;html=1;jettySize=auto;orthogonalLoop=1;fontSize=11;endArrow=block;endFill=0;endSize=8;strokeWidth=1;shadow=0;labelBackgroundColor=none;edgeStyle=orthogonalEdgeStyle;exitX=1;exitY=0.5;exitDx=0;exitDy=0;entryX=0;entryY=0.5;entryDx=0;entryDy=0;" parent="WIyWlLk6GJQsqaUBKTNV-1" source="67706t7fIg1zJIgNpnvR-9" target="67706t7fIg1zJIgNpnvR-11" edge="1">
          <mxGeometry relative="1" as="geometry">
            <mxPoint x="790" y="350" as="sourcePoint" />
            <mxPoint x="820" y="350" as="targetPoint" />
          </mxGeometry>
        </mxCell>
        <mxCell id="67706t7fIg1zJIgNpnvR-11" value="1. Display shots on visualiser&lt;div&gt;2. Decrease ammo on screen&lt;/div&gt;" style="rounded=0;whiteSpace=wrap;html=1;" parent="WIyWlLk6GJQsqaUBKTNV-1" vertex="1">
          <mxGeometry x="820" y="315" width="120" height="70" as="geometry" />
        </mxCell>
        <mxCell id="67706t7fIg1zJIgNpnvR-12" value="IR Received" style="rounded=0;whiteSpace=wrap;html=1;" parent="WIyWlLk6GJQsqaUBKTNV-1" vertex="1">
          <mxGeometry x="280" y="235" width="120" height="40" as="geometry" />
        </mxCell>
        <mxCell id="67706t7fIg1zJIgNpnvR-13" value="" style="rounded=0;html=1;jettySize=auto;orthogonalLoop=1;fontSize=11;endArrow=block;endFill=0;endSize=8;strokeWidth=1;shadow=0;labelBackgroundColor=none;edgeStyle=orthogonalEdgeStyle;entryX=0;entryY=0.5;entryDx=0;entryDy=0;" parent="WIyWlLk6GJQsqaUBKTNV-1" target="67706t7fIg1zJIgNpnvR-12" edge="1">
          <mxGeometry relative="1" as="geometry">
            <mxPoint x="240" y="350" as="sourcePoint" />
            <mxPoint x="140" y="520" as="targetPoint" />
            <Array as="points">
              <mxPoint x="240" y="255" />
            </Array>
          </mxGeometry>
        </mxCell>
        <mxCell id="67706t7fIg1zJIgNpnvR-14" value="End" style="rounded=1;whiteSpace=wrap;html=1;" parent="WIyWlLk6GJQsqaUBKTNV-1" vertex="1">
          <mxGeometry x="1545" y="609.5" width="70" height="30" as="geometry" />
        </mxCell>
        <mxCell id="67706t7fIg1zJIgNpnvR-17" value="" style="endArrow=none;html=1;rounded=0;exitX=1;exitY=0.5;exitDx=0;exitDy=0;" parent="WIyWlLk6GJQsqaUBKTNV-1" source="67706t7fIg1zJIgNpnvR-11" edge="1">
          <mxGeometry width="50" height="50" relative="1" as="geometry">
            <mxPoint x="910" y="500" as="sourcePoint" />
            <mxPoint x="1580" y="350" as="targetPoint" />
          </mxGeometry>
        </mxCell>
        <mxCell id="67706t7fIg1zJIgNpnvR-19" value="Health -= 10" style="rounded=0;whiteSpace=wrap;html=1;" parent="WIyWlLk6GJQsqaUBKTNV-1" vertex="1">
          <mxGeometry x="466" y="235" width="120" height="40" as="geometry" />
        </mxCell>
        <mxCell id="67706t7fIg1zJIgNpnvR-20" value="" style="rounded=0;html=1;jettySize=auto;orthogonalLoop=1;fontSize=11;endArrow=block;endFill=0;endSize=8;strokeWidth=1;shadow=0;labelBackgroundColor=none;edgeStyle=orthogonalEdgeStyle;entryX=0;entryY=0.5;entryDx=0;entryDy=0;exitX=1;exitY=0.5;exitDx=0;exitDy=0;" parent="WIyWlLk6GJQsqaUBKTNV-1" source="67706t7fIg1zJIgNpnvR-12" target="67706t7fIg1zJIgNpnvR-19" edge="1">
          <mxGeometry relative="1" as="geometry">
            <mxPoint x="410" y="165" as="sourcePoint" />
            <mxPoint x="466" y="165" as="targetPoint" />
          </mxGeometry>
        </mxCell>
        <mxCell id="67706t7fIg1zJIgNpnvR-21" value="1. Display red border on screen&lt;div&gt;2. LED light up on vest&lt;/div&gt;&lt;div&gt;3. 7-seg health decrease&lt;/div&gt;&lt;div&gt;4. Buzzer beeps&lt;/div&gt;" style="rounded=0;whiteSpace=wrap;html=1;" parent="WIyWlLk6GJQsqaUBKTNV-1" vertex="1">
          <mxGeometry x="650" y="180" width="120" height="110" as="geometry" />
        </mxCell>
        <mxCell id="67706t7fIg1zJIgNpnvR-22" value="" style="rounded=0;html=1;jettySize=auto;orthogonalLoop=1;fontSize=11;endArrow=block;endFill=0;endSize=8;strokeWidth=1;shadow=0;labelBackgroundColor=none;edgeStyle=orthogonalEdgeStyle;exitX=1;exitY=0.5;exitDx=0;exitDy=0;entryX=0;entryY=0.5;entryDx=0;entryDy=0;" parent="WIyWlLk6GJQsqaUBKTNV-1" source="67706t7fIg1zJIgNpnvR-19" target="67706t7fIg1zJIgNpnvR-21" edge="1">
          <mxGeometry relative="1" as="geometry">
            <mxPoint x="606" y="165" as="sourcePoint" />
            <mxPoint x="660" y="165" as="targetPoint" />
          </mxGeometry>
        </mxCell>
        <mxCell id="67706t7fIg1zJIgNpnvR-24" value="HP &amp;lt;= 0?" style="rhombus;whiteSpace=wrap;html=1;" parent="WIyWlLk6GJQsqaUBKTNV-1" vertex="1">
          <mxGeometry x="840" y="225" width="80" height="60" as="geometry" />
        </mxCell>
        <mxCell id="67706t7fIg1zJIgNpnvR-25" value="" style="rounded=0;html=1;jettySize=auto;orthogonalLoop=1;fontSize=11;endArrow=block;endFill=0;endSize=8;strokeWidth=1;shadow=0;labelBackgroundColor=none;edgeStyle=orthogonalEdgeStyle;exitX=1;exitY=0.5;exitDx=0;exitDy=0;entryX=0;entryY=0.5;entryDx=0;entryDy=0;" parent="WIyWlLk6GJQsqaUBKTNV-1" source="67706t7fIg1zJIgNpnvR-21" target="67706t7fIg1zJIgNpnvR-24" edge="1">
          <mxGeometry relative="1" as="geometry">
            <mxPoint x="780" y="165" as="sourcePoint" />
            <mxPoint x="820" y="255" as="targetPoint" />
          </mxGeometry>
        </mxCell>
        <mxCell id="67706t7fIg1zJIgNpnvR-27" value="" style="endArrow=block;html=1;rounded=0;exitX=1;exitY=0.5;exitDx=0;exitDy=0;edgeStyle=orthogonalEdgeStyle;entryX=0.5;entryY=0;entryDx=0;entryDy=0;endFill=0;" parent="WIyWlLk6GJQsqaUBKTNV-1" source="67706t7fIg1zJIgNpnvR-32" target="67706t7fIg1zJIgNpnvR-14" edge="1">
          <mxGeometry width="50" height="50" relative="1" as="geometry">
            <mxPoint x="930" y="149.5" as="sourcePoint" />
            <mxPoint x="1095" y="150" as="targetPoint" />
          </mxGeometry>
        </mxCell>
        <mxCell id="67706t7fIg1zJIgNpnvR-28" value="No" style="text;html=1;align=center;verticalAlign=middle;whiteSpace=wrap;rounded=0;" parent="WIyWlLk6GJQsqaUBKTNV-1" vertex="1">
          <mxGeometry x="920" y="225" width="60" height="30" as="geometry" />
        </mxCell>
        <mxCell id="67706t7fIg1zJIgNpnvR-29" value="Display death screen on visualiser" style="whiteSpace=wrap;html=1;aspect=fixed;" parent="WIyWlLk6GJQsqaUBKTNV-1" vertex="1">
          <mxGeometry x="840" y="110" width="80" height="80" as="geometry" />
        </mxCell>
        <mxCell id="67706t7fIg1zJIgNpnvR-30" value="" style="rounded=0;html=1;jettySize=auto;orthogonalLoop=1;fontSize=11;endArrow=block;endFill=0;endSize=8;strokeWidth=1;shadow=0;labelBackgroundColor=none;edgeStyle=orthogonalEdgeStyle;exitX=0.5;exitY=0;exitDx=0;exitDy=0;entryX=0.5;entryY=1;entryDx=0;entryDy=0;" parent="WIyWlLk6GJQsqaUBKTNV-1" source="67706t7fIg1zJIgNpnvR-24" target="67706t7fIg1zJIgNpnvR-29" edge="1">
          <mxGeometry relative="1" as="geometry">
            <mxPoint x="780" y="265" as="sourcePoint" />
            <mxPoint x="850" y="265" as="targetPoint" />
          </mxGeometry>
        </mxCell>
        <mxCell id="67706t7fIg1zJIgNpnvR-31" value="Yes" style="text;html=1;align=center;verticalAlign=middle;whiteSpace=wrap;rounded=0;" parent="WIyWlLk6GJQsqaUBKTNV-1" vertex="1">
          <mxGeometry x="870" y="195" width="60" height="30" as="geometry" />
        </mxCell>
        <mxCell id="67706t7fIg1zJIgNpnvR-32" value="Respawn" style="rounded=0;whiteSpace=wrap;html=1;" parent="WIyWlLk6GJQsqaUBKTNV-1" vertex="1">
          <mxGeometry x="1005" y="130" width="90" height="40" as="geometry" />
        </mxCell>
        <mxCell id="67706t7fIg1zJIgNpnvR-35" value="No" style="text;html=1;align=center;verticalAlign=middle;whiteSpace=wrap;rounded=0;" parent="WIyWlLk6GJQsqaUBKTNV-1" vertex="1">
          <mxGeometry x="586" y="320" width="60" height="30" as="geometry" />
        </mxCell>
        <mxCell id="67706t7fIg1zJIgNpnvR-37" value="" style="endArrow=none;html=1;rounded=0;exitX=1;exitY=0.5;exitDx=0;exitDy=0;" parent="WIyWlLk6GJQsqaUBKTNV-1" source="67706t7fIg1zJIgNpnvR-24" edge="1">
          <mxGeometry width="50" height="50" relative="1" as="geometry">
            <mxPoint x="930" y="254.47" as="sourcePoint" />
            <mxPoint x="1580" y="254" as="targetPoint" />
          </mxGeometry>
        </mxCell>
        <mxCell id="67706t7fIg1zJIgNpnvR-38" value="" style="endArrow=none;html=1;rounded=0;exitX=1;exitY=0.5;exitDx=0;exitDy=0;" parent="WIyWlLk6GJQsqaUBKTNV-1" source="67706t7fIg1zJIgNpnvR-5" edge="1">
          <mxGeometry width="50" height="50" relative="1" as="geometry">
            <mxPoint x="675" y="470" as="sourcePoint" />
            <mxPoint x="1580" y="460" as="targetPoint" />
          </mxGeometry>
        </mxCell>
        <mxCell id="67706t7fIg1zJIgNpnvR-40" value="" style="rounded=0;html=1;jettySize=auto;orthogonalLoop=1;fontSize=11;endArrow=block;endFill=0;endSize=8;strokeWidth=1;shadow=0;labelBackgroundColor=none;edgeStyle=orthogonalEdgeStyle;entryX=0;entryY=0.5;entryDx=0;entryDy=0;" parent="WIyWlLk6GJQsqaUBKTNV-1" target="67706t7fIg1zJIgNpnvR-41" edge="1">
          <mxGeometry relative="1" as="geometry">
            <mxPoint x="240" y="620" as="sourcePoint" />
            <mxPoint x="240" y="490" as="targetPoint" />
            <Array as="points">
              <mxPoint x="240" y="1020" />
            </Array>
          </mxGeometry>
        </mxCell>
        <mxCell id="67706t7fIg1zJIgNpnvR-41" value="Motion Detected" style="rounded=0;whiteSpace=wrap;html=1;" parent="WIyWlLk6GJQsqaUBKTNV-1" vertex="1">
          <mxGeometry x="280" y="997.25" width="120" height="45" as="geometry" />
        </mxCell>
        <mxCell id="67706t7fIg1zJIgNpnvR-42" value="Generated output from AI Model" style="rounded=0;whiteSpace=wrap;html=1;" parent="WIyWlLk6GJQsqaUBKTNV-1" vertex="1">
          <mxGeometry x="466" y="989.5" width="120" height="60" as="geometry" />
        </mxCell>
        <mxCell id="67706t7fIg1zJIgNpnvR-43" value="" style="rounded=0;html=1;jettySize=auto;orthogonalLoop=1;fontSize=11;endArrow=block;endFill=0;endSize=8;strokeWidth=1;shadow=0;labelBackgroundColor=none;edgeStyle=orthogonalEdgeStyle;entryX=0;entryY=0.5;entryDx=0;entryDy=0;exitX=1;exitY=0.5;exitDx=0;exitDy=0;" parent="WIyWlLk6GJQsqaUBKTNV-1" source="67706t7fIg1zJIgNpnvR-41" target="67706t7fIg1zJIgNpnvR-42" edge="1">
          <mxGeometry relative="1" as="geometry">
            <mxPoint x="410" y="352" as="sourcePoint" />
            <mxPoint x="466" y="352" as="targetPoint" />
          </mxGeometry>
        </mxCell>
        <mxCell id="67706t7fIg1zJIgNpnvR-44" value="Reload" style="rounded=0;whiteSpace=wrap;html=1;" parent="WIyWlLk6GJQsqaUBKTNV-1" vertex="1">
          <mxGeometry x="650" y="554" width="80" height="32" as="geometry" />
        </mxCell>
        <mxCell id="67706t7fIg1zJIgNpnvR-46" value="No. of Bullets == 0?" style="rhombus;whiteSpace=wrap;html=1;" parent="WIyWlLk6GJQsqaUBKTNV-1" vertex="1">
          <mxGeometry x="770" y="529.5" width="140" height="80" as="geometry" />
        </mxCell>
        <mxCell id="67706t7fIg1zJIgNpnvR-47" value="" style="rounded=0;html=1;jettySize=auto;orthogonalLoop=1;fontSize=11;endArrow=block;endFill=0;endSize=8;strokeWidth=1;shadow=0;labelBackgroundColor=none;edgeStyle=orthogonalEdgeStyle;exitX=1;exitY=0.5;exitDx=0;exitDy=0;entryX=0;entryY=0.5;entryDx=0;entryDy=0;" parent="WIyWlLk6GJQsqaUBKTNV-1" source="67706t7fIg1zJIgNpnvR-44" target="67706t7fIg1zJIgNpnvR-46" edge="1">
          <mxGeometry relative="1" as="geometry">
            <mxPoint x="596" y="580" as="sourcePoint" />
            <mxPoint x="660" y="580" as="targetPoint" />
          </mxGeometry>
        </mxCell>
        <mxCell id="67706t7fIg1zJIgNpnvR-48" value="Do nothing" style="rounded=0;whiteSpace=wrap;html=1;" parent="WIyWlLk6GJQsqaUBKTNV-1" vertex="1">
          <mxGeometry x="970" y="554" width="80" height="32" as="geometry" />
        </mxCell>
        <mxCell id="67706t7fIg1zJIgNpnvR-49" value="" style="rounded=0;html=1;jettySize=auto;orthogonalLoop=1;fontSize=11;endArrow=block;endFill=0;endSize=8;strokeWidth=1;shadow=0;labelBackgroundColor=none;edgeStyle=orthogonalEdgeStyle;exitX=1;exitY=0.5;exitDx=0;exitDy=0;entryX=0;entryY=0.5;entryDx=0;entryDy=0;" parent="WIyWlLk6GJQsqaUBKTNV-1" source="67706t7fIg1zJIgNpnvR-46" target="67706t7fIg1zJIgNpnvR-48" edge="1">
          <mxGeometry relative="1" as="geometry">
            <mxPoint x="606" y="590" as="sourcePoint" />
            <mxPoint x="670" y="590" as="targetPoint" />
          </mxGeometry>
        </mxCell>
        <mxCell id="67706t7fIg1zJIgNpnvR-50" value="" style="rounded=0;html=1;jettySize=auto;orthogonalLoop=1;fontSize=11;endArrow=none;endFill=0;endSize=8;strokeWidth=1;shadow=0;labelBackgroundColor=none;edgeStyle=orthogonalEdgeStyle;exitX=1;exitY=0.5;exitDx=0;exitDy=0;" parent="WIyWlLk6GJQsqaUBKTNV-1" source="67706t7fIg1zJIgNpnvR-48" edge="1">
          <mxGeometry relative="1" as="geometry">
            <mxPoint x="616" y="600" as="sourcePoint" />
            <mxPoint x="1580" y="570" as="targetPoint" />
          </mxGeometry>
        </mxCell>
        <mxCell id="67706t7fIg1zJIgNpnvR-51" value="No" style="text;html=1;align=center;verticalAlign=middle;whiteSpace=wrap;rounded=0;" parent="WIyWlLk6GJQsqaUBKTNV-1" vertex="1">
          <mxGeometry x="900" y="540" width="60" height="30" as="geometry" />
        </mxCell>
        <mxCell id="67706t7fIg1zJIgNpnvR-54" value="" style="rounded=0;html=1;jettySize=auto;orthogonalLoop=1;fontSize=11;endArrow=block;endFill=0;endSize=8;strokeWidth=1;shadow=0;labelBackgroundColor=none;edgeStyle=orthogonalEdgeStyle;exitX=0.5;exitY=1;exitDx=0;exitDy=0;entryX=0.5;entryY=0;entryDx=0;entryDy=0;" parent="WIyWlLk6GJQsqaUBKTNV-1" source="67706t7fIg1zJIgNpnvR-46" target="67706t7fIg1zJIgNpnvR-55" edge="1">
          <mxGeometry relative="1" as="geometry">
            <mxPoint x="636" y="620" as="sourcePoint" />
            <mxPoint x="700" y="620" as="targetPoint" />
          </mxGeometry>
        </mxCell>
        <mxCell id="67706t7fIg1zJIgNpnvR-55" value="Bullets = 10" style="rounded=0;whiteSpace=wrap;html=1;" parent="WIyWlLk6GJQsqaUBKTNV-1" vertex="1">
          <mxGeometry x="790" y="647" width="100" height="30" as="geometry" />
        </mxCell>
        <mxCell id="67706t7fIg1zJIgNpnvR-56" value="Display on visualiser" style="rounded=0;whiteSpace=wrap;html=1;" parent="WIyWlLk6GJQsqaUBKTNV-1" vertex="1">
          <mxGeometry x="950" y="642" width="120" height="40" as="geometry" />
        </mxCell>
        <mxCell id="67706t7fIg1zJIgNpnvR-57" value="" style="rounded=0;html=1;jettySize=auto;orthogonalLoop=1;fontSize=11;endArrow=block;endFill=0;endSize=8;strokeWidth=1;shadow=0;labelBackgroundColor=none;edgeStyle=orthogonalEdgeStyle;exitX=1;exitY=0.5;exitDx=0;exitDy=0;entryX=0;entryY=0.5;entryDx=0;entryDy=0;" parent="WIyWlLk6GJQsqaUBKTNV-1" source="67706t7fIg1zJIgNpnvR-55" target="67706t7fIg1zJIgNpnvR-56" edge="1">
          <mxGeometry relative="1" as="geometry">
            <mxPoint x="646" y="625" as="sourcePoint" />
            <mxPoint x="710" y="625" as="targetPoint" />
          </mxGeometry>
        </mxCell>
        <mxCell id="67706t7fIg1zJIgNpnvR-58" value="" style="rounded=0;html=1;jettySize=auto;orthogonalLoop=1;fontSize=11;endArrow=none;endFill=0;endSize=8;strokeWidth=1;shadow=0;labelBackgroundColor=none;edgeStyle=orthogonalEdgeStyle;exitX=1;exitY=0.5;exitDx=0;exitDy=0;" parent="WIyWlLk6GJQsqaUBKTNV-1" source="67706t7fIg1zJIgNpnvR-56" edge="1">
          <mxGeometry relative="1" as="geometry">
            <mxPoint x="900" y="677" as="sourcePoint" />
            <mxPoint x="1580" y="662" as="targetPoint" />
          </mxGeometry>
        </mxCell>
        <mxCell id="67706t7fIg1zJIgNpnvR-59" value="Yes" style="text;html=1;align=center;verticalAlign=middle;whiteSpace=wrap;rounded=0;" parent="WIyWlLk6GJQsqaUBKTNV-1" vertex="1">
          <mxGeometry x="830" y="609.5" width="60" height="30" as="geometry" />
        </mxCell>
        <mxCell id="67706t7fIg1zJIgNpnvR-61" value="Rain Bomb" style="rounded=0;whiteSpace=wrap;html=1;" parent="WIyWlLk6GJQsqaUBKTNV-1" vertex="1">
          <mxGeometry x="650" y="716.5" width="80" height="32" as="geometry" />
        </mxCell>
        <mxCell id="67706t7fIg1zJIgNpnvR-62" value="0 &amp;lt; No. of Bombs &amp;lt;= 2?" style="rhombus;whiteSpace=wrap;html=1;" parent="WIyWlLk6GJQsqaUBKTNV-1" vertex="1">
          <mxGeometry x="770" y="692" width="160" height="80" as="geometry" />
        </mxCell>
        <mxCell id="67706t7fIg1zJIgNpnvR-63" value="" style="rounded=0;html=1;jettySize=auto;orthogonalLoop=1;fontSize=11;endArrow=block;endFill=0;endSize=8;strokeWidth=1;shadow=0;labelBackgroundColor=none;edgeStyle=orthogonalEdgeStyle;exitX=1;exitY=0.5;exitDx=0;exitDy=0;entryX=0;entryY=0.5;entryDx=0;entryDy=0;" parent="WIyWlLk6GJQsqaUBKTNV-1" source="67706t7fIg1zJIgNpnvR-61" target="67706t7fIg1zJIgNpnvR-62" edge="1">
          <mxGeometry relative="1" as="geometry">
            <mxPoint x="596" y="742.5" as="sourcePoint" />
            <mxPoint x="660" y="742.5" as="targetPoint" />
          </mxGeometry>
        </mxCell>
        <mxCell id="67706t7fIg1zJIgNpnvR-64" value="" style="rounded=0;html=1;jettySize=auto;orthogonalLoop=1;fontSize=11;endArrow=block;endFill=0;endSize=8;strokeWidth=1;shadow=0;labelBackgroundColor=none;edgeStyle=orthogonalEdgeStyle;exitX=1;exitY=0.5;exitDx=0;exitDy=0;entryX=0;entryY=0.5;entryDx=0;entryDy=0;" parent="WIyWlLk6GJQsqaUBKTNV-1" source="67706t7fIg1zJIgNpnvR-62" target="t7-j-hY-2dMga8Nwm9BI-4" edge="1">
          <mxGeometry relative="1" as="geometry">
            <mxPoint x="606" y="752.5" as="sourcePoint" />
            <mxPoint x="670" y="752.5" as="targetPoint" />
          </mxGeometry>
        </mxCell>
        <mxCell id="67706t7fIg1zJIgNpnvR-65" value="Yes" style="text;html=1;align=center;verticalAlign=middle;whiteSpace=wrap;rounded=0;" parent="WIyWlLk6GJQsqaUBKTNV-1" vertex="1">
          <mxGeometry x="920" y="702.5" width="60" height="30" as="geometry" />
        </mxCell>
        <mxCell id="67706t7fIg1zJIgNpnvR-67" value="Enemy HP -= 5" style="rounded=0;whiteSpace=wrap;html=1;" parent="WIyWlLk6GJQsqaUBKTNV-1" vertex="1">
          <mxGeometry x="1185" y="717.5" width="100" height="30" as="geometry" />
        </mxCell>
        <mxCell id="67706t7fIg1zJIgNpnvR-68" value="" style="rounded=0;html=1;jettySize=auto;orthogonalLoop=1;fontSize=11;endArrow=block;endFill=0;endSize=8;strokeWidth=1;shadow=0;labelBackgroundColor=none;edgeStyle=orthogonalEdgeStyle;exitX=1;exitY=0.5;exitDx=0;exitDy=0;entryX=0;entryY=0.5;entryDx=0;entryDy=0;" parent="WIyWlLk6GJQsqaUBKTNV-1" source="67706t7fIg1zJIgNpnvR-67" target="67706t7fIg1zJIgNpnvR-70" edge="1">
          <mxGeometry relative="1" as="geometry">
            <mxPoint x="831" y="780.75" as="sourcePoint" />
            <mxPoint x="895" y="780.75" as="targetPoint" />
          </mxGeometry>
        </mxCell>
        <mxCell id="67706t7fIg1zJIgNpnvR-69" value="No" style="text;html=1;align=center;verticalAlign=middle;whiteSpace=wrap;rounded=0;" parent="WIyWlLk6GJQsqaUBKTNV-1" vertex="1">
          <mxGeometry x="840" y="779.5" width="60" height="30" as="geometry" />
        </mxCell>
        <mxCell id="67706t7fIg1zJIgNpnvR-70" value="1. Display red border on enemy visualiser&lt;div&gt;2. Light up enemy LED on vest&lt;/div&gt;&lt;div&gt;3. Buzzer beep&lt;/div&gt;" style="rounded=0;whiteSpace=wrap;html=1;" parent="WIyWlLk6GJQsqaUBKTNV-1" vertex="1">
          <mxGeometry x="1340" y="688.88" width="130" height="86.25" as="geometry" />
        </mxCell>
        <mxCell id="67706t7fIg1zJIgNpnvR-71" value="Do nothing" style="rounded=0;whiteSpace=wrap;html=1;" parent="WIyWlLk6GJQsqaUBKTNV-1" vertex="1">
          <mxGeometry x="1310" y="829" width="80" height="32" as="geometry" />
        </mxCell>
        <mxCell id="67706t7fIg1zJIgNpnvR-74" value="Shield" style="rounded=0;whiteSpace=wrap;html=1;" parent="WIyWlLk6GJQsqaUBKTNV-1" vertex="1">
          <mxGeometry x="650" y="931.5" width="80" height="32" as="geometry" />
        </mxCell>
        <mxCell id="67706t7fIg1zJIgNpnvR-75" value="" style="rounded=0;html=1;jettySize=auto;orthogonalLoop=1;fontSize=11;endArrow=block;endFill=0;endSize=8;strokeWidth=1;shadow=0;labelBackgroundColor=none;edgeStyle=orthogonalEdgeStyle;exitX=1;exitY=0.5;exitDx=0;exitDy=0;entryX=0;entryY=0.5;entryDx=0;entryDy=0;" parent="WIyWlLk6GJQsqaUBKTNV-1" source="67706t7fIg1zJIgNpnvR-74" target="67706t7fIg1zJIgNpnvR-83" edge="1">
          <mxGeometry relative="1" as="geometry">
            <mxPoint x="596" y="957.5" as="sourcePoint" />
            <mxPoint x="660" y="957.5" as="targetPoint" />
          </mxGeometry>
        </mxCell>
        <mxCell id="67706t7fIg1zJIgNpnvR-76" value="" style="rounded=0;html=1;jettySize=auto;orthogonalLoop=1;fontSize=11;endArrow=block;endFill=0;endSize=8;strokeWidth=1;shadow=0;labelBackgroundColor=none;edgeStyle=orthogonalEdgeStyle;exitX=1;exitY=0.5;exitDx=0;exitDy=0;entryX=0;entryY=0.5;entryDx=0;entryDy=0;" parent="WIyWlLk6GJQsqaUBKTNV-1" source="67706t7fIg1zJIgNpnvR-83" target="67706t7fIg1zJIgNpnvR-82" edge="1">
          <mxGeometry relative="1" as="geometry">
            <mxPoint x="606" y="967.5" as="sourcePoint" />
            <mxPoint x="670" y="967.5" as="targetPoint" />
          </mxGeometry>
        </mxCell>
        <mxCell id="67706t7fIg1zJIgNpnvR-77" value="" style="rounded=0;html=1;jettySize=auto;orthogonalLoop=1;fontSize=11;endArrow=block;endFill=0;endSize=8;strokeWidth=1;shadow=0;labelBackgroundColor=none;edgeStyle=orthogonalEdgeStyle;exitX=0.5;exitY=1;exitDx=0;exitDy=0;" parent="WIyWlLk6GJQsqaUBKTNV-1" source="67706t7fIg1zJIgNpnvR-83" edge="1">
          <mxGeometry relative="1" as="geometry">
            <mxPoint x="636" y="997.5" as="sourcePoint" />
            <mxPoint x="840" y="1024" as="targetPoint" />
          </mxGeometry>
        </mxCell>
        <mxCell id="67706t7fIg1zJIgNpnvR-78" value="1. Display shield on visualiser&lt;div&gt;2. Timer = 10&lt;/div&gt;" style="rounded=0;whiteSpace=wrap;html=1;" parent="WIyWlLk6GJQsqaUBKTNV-1" vertex="1">
          <mxGeometry x="790" y="1024.5" width="100" height="50.5" as="geometry" />
        </mxCell>
        <mxCell id="67706t7fIg1zJIgNpnvR-79" value="" style="rounded=0;html=1;jettySize=auto;orthogonalLoop=1;fontSize=11;endArrow=block;endFill=0;endSize=8;strokeWidth=1;shadow=0;labelBackgroundColor=none;edgeStyle=orthogonalEdgeStyle;exitX=1;exitY=0.5;exitDx=0;exitDy=0;entryX=0;entryY=0.5;entryDx=0;entryDy=0;" parent="WIyWlLk6GJQsqaUBKTNV-1" source="67706t7fIg1zJIgNpnvR-78" target="67706t7fIg1zJIgNpnvR-85" edge="1">
          <mxGeometry relative="1" as="geometry">
            <mxPoint x="646" y="1002.5" as="sourcePoint" />
            <mxPoint x="967.5000000000002" y="1049.755" as="targetPoint" />
          </mxGeometry>
        </mxCell>
        <mxCell id="67706t7fIg1zJIgNpnvR-80" value="Yes" style="text;html=1;align=center;verticalAlign=middle;whiteSpace=wrap;rounded=0;" parent="WIyWlLk6GJQsqaUBKTNV-1" vertex="1">
          <mxGeometry x="830" y="987" width="60" height="30" as="geometry" />
        </mxCell>
        <mxCell id="67706t7fIg1zJIgNpnvR-82" value="Do nothing" style="rounded=0;whiteSpace=wrap;html=1;" parent="WIyWlLk6GJQsqaUBKTNV-1" vertex="1">
          <mxGeometry x="970" y="931.5" width="80" height="32" as="geometry" />
        </mxCell>
        <mxCell id="67706t7fIg1zJIgNpnvR-83" value="0&amp;lt; Shield HP &amp;lt;= 30?" style="rhombus;whiteSpace=wrap;html=1;" parent="WIyWlLk6GJQsqaUBKTNV-1" vertex="1">
          <mxGeometry x="770" y="907" width="140" height="80" as="geometry" />
        </mxCell>
        <mxCell id="67706t7fIg1zJIgNpnvR-84" value="" style="rounded=0;html=1;jettySize=auto;orthogonalLoop=1;fontSize=11;endArrow=none;endFill=0;endSize=8;strokeWidth=1;shadow=0;labelBackgroundColor=none;edgeStyle=orthogonalEdgeStyle;exitX=1;exitY=0.5;exitDx=0;exitDy=0;" parent="WIyWlLk6GJQsqaUBKTNV-1" source="67706t7fIg1zJIgNpnvR-82" edge="1">
          <mxGeometry relative="1" as="geometry">
            <mxPoint x="1060" y="946.87" as="sourcePoint" />
            <mxPoint x="1580" y="948" as="targetPoint" />
            <Array as="points">
              <mxPoint x="1315" y="947" />
              <mxPoint x="1580" y="948" />
            </Array>
          </mxGeometry>
        </mxCell>
        <mxCell id="67706t7fIg1zJIgNpnvR-85" value="Timer &amp;lt;= 0 || Shield HP &amp;lt;= 0?" style="rhombus;whiteSpace=wrap;html=1;" parent="WIyWlLk6GJQsqaUBKTNV-1" vertex="1">
          <mxGeometry x="930" y="1005.82" width="210" height="87.87" as="geometry" />
        </mxCell>
        <mxCell id="67706t7fIg1zJIgNpnvR-86" value="Timer --" style="rounded=0;whiteSpace=wrap;html=1;" parent="WIyWlLk6GJQsqaUBKTNV-1" vertex="1">
          <mxGeometry x="1185" y="1032.25" width="80" height="35" as="geometry" />
        </mxCell>
        <mxCell id="67706t7fIg1zJIgNpnvR-87" value="" style="rounded=0;html=1;jettySize=auto;orthogonalLoop=1;fontSize=11;endArrow=block;endFill=0;endSize=8;strokeWidth=1;shadow=0;labelBackgroundColor=none;edgeStyle=orthogonalEdgeStyle;exitX=1;exitY=0.5;exitDx=0;exitDy=0;entryX=0;entryY=0.5;entryDx=0;entryDy=0;" parent="WIyWlLk6GJQsqaUBKTNV-1" source="67706t7fIg1zJIgNpnvR-85" target="67706t7fIg1zJIgNpnvR-86" edge="1">
          <mxGeometry relative="1" as="geometry">
            <mxPoint x="910" y="730" as="sourcePoint" />
            <mxPoint x="970" y="730" as="targetPoint" />
          </mxGeometry>
        </mxCell>
        <mxCell id="67706t7fIg1zJIgNpnvR-88" value="No" style="text;html=1;align=center;verticalAlign=middle;whiteSpace=wrap;rounded=0;" parent="WIyWlLk6GJQsqaUBKTNV-1" vertex="1">
          <mxGeometry x="1125" y="1024.5" width="60" height="30" as="geometry" />
        </mxCell>
        <mxCell id="67706t7fIg1zJIgNpnvR-89" value="" style="rounded=0;html=1;jettySize=auto;orthogonalLoop=1;fontSize=11;endArrow=block;endFill=0;endSize=8;strokeWidth=1;shadow=0;labelBackgroundColor=none;edgeStyle=orthogonalEdgeStyle;exitX=0.5;exitY=0;exitDx=0;exitDy=0;entryX=0.5;entryY=0;entryDx=0;entryDy=0;" parent="WIyWlLk6GJQsqaUBKTNV-1" source="67706t7fIg1zJIgNpnvR-86" target="67706t7fIg1zJIgNpnvR-85" edge="1">
          <mxGeometry relative="1" as="geometry">
            <mxPoint x="920" y="957" as="sourcePoint" />
            <mxPoint x="980" y="958" as="targetPoint" />
          </mxGeometry>
        </mxCell>
        <mxCell id="67706t7fIg1zJIgNpnvR-91" value="" style="rounded=0;html=1;jettySize=auto;orthogonalLoop=1;fontSize=11;endArrow=none;endFill=0;endSize=8;strokeWidth=1;shadow=0;labelBackgroundColor=none;edgeStyle=orthogonalEdgeStyle;exitX=0.5;exitY=1;exitDx=0;exitDy=0;" parent="WIyWlLk6GJQsqaUBKTNV-1" source="67706t7fIg1zJIgNpnvR-85" edge="1">
          <mxGeometry relative="1" as="geometry">
            <mxPoint x="910" y="1050" as="sourcePoint" />
            <mxPoint x="1580" y="1125" as="targetPoint" />
            <Array as="points">
              <mxPoint x="1035" y="1125" />
            </Array>
          </mxGeometry>
        </mxCell>
        <mxCell id="67706t7fIg1zJIgNpnvR-92" value="" style="rounded=0;html=1;jettySize=auto;orthogonalLoop=1;fontSize=11;endArrow=block;endFill=0;endSize=8;strokeWidth=1;shadow=0;labelBackgroundColor=none;edgeStyle=orthogonalEdgeStyle;entryX=0;entryY=0.5;entryDx=0;entryDy=0;exitX=1;exitY=0.5;exitDx=0;exitDy=0;" parent="WIyWlLk6GJQsqaUBKTNV-1" source="67706t7fIg1zJIgNpnvR-42" target="67706t7fIg1zJIgNpnvR-74" edge="1">
          <mxGeometry relative="1" as="geometry">
            <mxPoint x="620" y="733" as="sourcePoint" />
            <mxPoint x="610" y="928.47" as="targetPoint" />
            <Array as="points">
              <mxPoint x="620" y="1019" />
              <mxPoint x="620" y="948" />
              <mxPoint x="650" y="948" />
            </Array>
          </mxGeometry>
        </mxCell>
        <mxCell id="67706t7fIg1zJIgNpnvR-94" value="Sports Action&lt;div&gt;1. Basketball&lt;/div&gt;&lt;div&gt;2. Volleyball&lt;/div&gt;&lt;div&gt;3. Football&lt;/div&gt;&lt;div&gt;4. Bowling&lt;/div&gt;" style="rounded=0;whiteSpace=wrap;html=1;" parent="WIyWlLk6GJQsqaUBKTNV-1" vertex="1">
          <mxGeometry x="650" y="1124.5" width="110" height="85.5" as="geometry" />
        </mxCell>
        <mxCell id="67706t7fIg1zJIgNpnvR-95" value="" style="rounded=0;html=1;jettySize=auto;orthogonalLoop=1;fontSize=11;endArrow=block;endFill=0;endSize=8;strokeWidth=1;shadow=0;labelBackgroundColor=none;edgeStyle=orthogonalEdgeStyle;exitX=1;exitY=0.5;exitDx=0;exitDy=0;entryX=0;entryY=0.5;entryDx=0;entryDy=0;" parent="WIyWlLk6GJQsqaUBKTNV-1" source="67706t7fIg1zJIgNpnvR-94" target="67706t7fIg1zJIgNpnvR-103" edge="1">
          <mxGeometry relative="1" as="geometry">
            <mxPoint x="596" y="1150.5" as="sourcePoint" />
            <mxPoint x="660" y="1150.5" as="targetPoint" />
            <Array as="points">
              <mxPoint x="790" y="1167" />
              <mxPoint x="810" y="1167" />
            </Array>
          </mxGeometry>
        </mxCell>
        <mxCell id="67706t7fIg1zJIgNpnvR-96" value="" style="rounded=0;html=1;jettySize=auto;orthogonalLoop=1;fontSize=11;endArrow=block;endFill=0;endSize=8;strokeWidth=1;shadow=0;labelBackgroundColor=none;edgeStyle=orthogonalEdgeStyle;exitX=1;exitY=0.5;exitDx=0;exitDy=0;entryX=0;entryY=0.5;entryDx=0;entryDy=0;" parent="WIyWlLk6GJQsqaUBKTNV-1" source="67706t7fIg1zJIgNpnvR-103" target="67706t7fIg1zJIgNpnvR-102" edge="1">
          <mxGeometry relative="1" as="geometry">
            <mxPoint x="606" y="1160.5" as="sourcePoint" />
            <mxPoint x="670" y="1160.5" as="targetPoint" />
          </mxGeometry>
        </mxCell>
        <mxCell id="67706t7fIg1zJIgNpnvR-97" value="" style="rounded=0;html=1;jettySize=auto;orthogonalLoop=1;fontSize=11;endArrow=block;endFill=0;endSize=8;strokeWidth=1;shadow=0;labelBackgroundColor=none;edgeStyle=orthogonalEdgeStyle;exitX=0.5;exitY=1;exitDx=0;exitDy=0;entryX=0;entryY=0.5;entryDx=0;entryDy=0;" parent="WIyWlLk6GJQsqaUBKTNV-1" source="67706t7fIg1zJIgNpnvR-103" target="67706t7fIg1zJIgNpnvR-98" edge="1">
          <mxGeometry relative="1" as="geometry">
            <mxPoint x="636" y="1190.5" as="sourcePoint" />
            <mxPoint x="700" y="1190.5" as="targetPoint" />
            <Array as="points">
              <mxPoint x="880" y="1224" />
            </Array>
          </mxGeometry>
        </mxCell>
        <mxCell id="67706t7fIg1zJIgNpnvR-98" value="Enemy HP -= 10" style="rounded=0;whiteSpace=wrap;html=1;" parent="WIyWlLk6GJQsqaUBKTNV-1" vertex="1">
          <mxGeometry x="960" y="1208.75" width="100" height="30" as="geometry" />
        </mxCell>
        <mxCell id="67706t7fIg1zJIgNpnvR-99" value="" style="rounded=0;html=1;jettySize=auto;orthogonalLoop=1;fontSize=11;endArrow=block;endFill=0;endSize=8;strokeWidth=1;shadow=0;labelBackgroundColor=none;edgeStyle=orthogonalEdgeStyle;exitX=1;exitY=0.5;exitDx=0;exitDy=0;entryX=0;entryY=0.5;entryDx=0;entryDy=0;" parent="WIyWlLk6GJQsqaUBKTNV-1" source="67706t7fIg1zJIgNpnvR-98" target="67706t7fIg1zJIgNpnvR-101" edge="1">
          <mxGeometry relative="1" as="geometry">
            <mxPoint x="816" y="1186.75" as="sourcePoint" />
            <mxPoint x="880" y="1186.75" as="targetPoint" />
          </mxGeometry>
        </mxCell>
        <mxCell id="67706t7fIg1zJIgNpnvR-100" value="Yes" style="text;html=1;align=center;verticalAlign=middle;whiteSpace=wrap;rounded=0;" parent="WIyWlLk6GJQsqaUBKTNV-1" vertex="1">
          <mxGeometry x="880" y="1160" width="60" height="30" as="geometry" />
        </mxCell>
        <mxCell id="67706t7fIg1zJIgNpnvR-101" value="1. Display red border on enemy visualiser&lt;div&gt;2. Light up enemy LED on vest&lt;/div&gt;&lt;div&gt;3. Buzzer beep&lt;/div&gt;" style="rounded=0;whiteSpace=wrap;html=1;" parent="WIyWlLk6GJQsqaUBKTNV-1" vertex="1">
          <mxGeometry x="1115" y="1183.25" width="130" height="80" as="geometry" />
        </mxCell>
        <mxCell id="67706t7fIg1zJIgNpnvR-102" value="Do nothing" style="rounded=0;whiteSpace=wrap;html=1;" parent="WIyWlLk6GJQsqaUBKTNV-1" vertex="1">
          <mxGeometry x="1000" y="1151.25" width="80" height="32" as="geometry" />
        </mxCell>
        <mxCell id="67706t7fIg1zJIgNpnvR-103" value="Enemy in sight?" style="rhombus;whiteSpace=wrap;html=1;" parent="WIyWlLk6GJQsqaUBKTNV-1" vertex="1">
          <mxGeometry x="810" y="1127.25" width="140" height="80" as="geometry" />
        </mxCell>
        <mxCell id="67706t7fIg1zJIgNpnvR-104" value="" style="rounded=0;html=1;jettySize=auto;orthogonalLoop=1;fontSize=11;endArrow=block;endFill=0;endSize=8;strokeWidth=1;shadow=0;labelBackgroundColor=none;edgeStyle=orthogonalEdgeStyle;entryX=0;entryY=0.5;entryDx=0;entryDy=0;" parent="WIyWlLk6GJQsqaUBKTNV-1" target="67706t7fIg1zJIgNpnvR-94" edge="1">
          <mxGeometry relative="1" as="geometry">
            <mxPoint x="620" y="1020" as="sourcePoint" />
            <mxPoint x="640" y="1140" as="targetPoint" />
            <Array as="points">
              <mxPoint x="620" y="1167" />
            </Array>
          </mxGeometry>
        </mxCell>
        <mxCell id="67706t7fIg1zJIgNpnvR-124" value="" style="rounded=0;html=1;jettySize=auto;orthogonalLoop=1;fontSize=11;endArrow=block;endFill=0;endSize=8;strokeWidth=1;shadow=0;labelBackgroundColor=none;edgeStyle=orthogonalEdgeStyle;entryX=0;entryY=0.5;entryDx=0;entryDy=0;" parent="WIyWlLk6GJQsqaUBKTNV-1" target="67706t7fIg1zJIgNpnvR-125" edge="1">
          <mxGeometry relative="1" as="geometry">
            <mxPoint x="620" y="1167" as="sourcePoint" />
            <mxPoint x="650" y="1285" as="targetPoint" />
            <Array as="points">
              <mxPoint x="620" y="1285" />
            </Array>
          </mxGeometry>
        </mxCell>
        <mxCell id="67706t7fIg1zJIgNpnvR-125" value="Walk out of arena" style="rounded=0;whiteSpace=wrap;html=1;" parent="WIyWlLk6GJQsqaUBKTNV-1" vertex="1">
          <mxGeometry x="650" y="1269" width="100" height="32" as="geometry" />
        </mxCell>
        <mxCell id="67706t7fIg1zJIgNpnvR-129" value="" style="rounded=0;html=1;jettySize=auto;orthogonalLoop=1;fontSize=11;endArrow=block;endFill=0;endSize=8;strokeWidth=1;shadow=0;labelBackgroundColor=none;edgeStyle=orthogonalEdgeStyle;exitX=1;exitY=0.5;exitDx=0;exitDy=0;entryX=0;entryY=0.5;entryDx=0;entryDy=0;" parent="WIyWlLk6GJQsqaUBKTNV-1" source="67706t7fIg1zJIgNpnvR-125" target="67706t7fIg1zJIgNpnvR-130" edge="1">
          <mxGeometry relative="1" as="geometry">
            <mxPoint x="740" y="1195" as="sourcePoint" />
            <mxPoint x="800" y="1284.5" as="targetPoint" />
          </mxGeometry>
        </mxCell>
        <mxCell id="67706t7fIg1zJIgNpnvR-130" value="Exit game" style="rounded=0;whiteSpace=wrap;html=1;" parent="WIyWlLk6GJQsqaUBKTNV-1" vertex="1">
          <mxGeometry x="790" y="1269" width="100" height="32" as="geometry" />
        </mxCell>
        <mxCell id="67706t7fIg1zJIgNpnvR-132" value="" style="rounded=0;html=1;jettySize=auto;orthogonalLoop=1;fontSize=11;endArrow=block;endFill=0;endSize=8;strokeWidth=1;shadow=0;labelBackgroundColor=none;edgeStyle=orthogonalEdgeStyle;exitX=1;exitY=0.5;exitDx=0;exitDy=0;" parent="WIyWlLk6GJQsqaUBKTNV-1" source="67706t7fIg1zJIgNpnvR-130" target="67706t7fIg1zJIgNpnvR-14" edge="1">
          <mxGeometry relative="1" as="geometry">
            <mxPoint x="920" y="1572" as="sourcePoint" />
            <mxPoint x="1210" y="1520" as="targetPoint" />
          </mxGeometry>
        </mxCell>
        <mxCell id="67706t7fIg1zJIgNpnvR-133" value="" style="rounded=0;html=1;jettySize=auto;orthogonalLoop=1;fontSize=11;endArrow=none;endFill=0;endSize=8;strokeWidth=1;shadow=0;labelBackgroundColor=none;edgeStyle=orthogonalEdgeStyle;exitX=1;exitY=0.5;exitDx=0;exitDy=0;" parent="WIyWlLk6GJQsqaUBKTNV-1" source="67706t7fIg1zJIgNpnvR-102" edge="1">
          <mxGeometry relative="1" as="geometry">
            <mxPoint x="1070" y="1140" as="sourcePoint" />
            <mxPoint x="1580" y="1167" as="targetPoint" />
            <Array as="points">
              <mxPoint x="1300" y="1167" />
            </Array>
          </mxGeometry>
        </mxCell>
        <mxCell id="67706t7fIg1zJIgNpnvR-134" value="" style="rounded=0;html=1;jettySize=auto;orthogonalLoop=1;fontSize=11;endArrow=none;endFill=0;endSize=8;strokeWidth=1;shadow=0;labelBackgroundColor=none;edgeStyle=orthogonalEdgeStyle;exitX=1;exitY=0.5;exitDx=0;exitDy=0;" parent="WIyWlLk6GJQsqaUBKTNV-1" source="67706t7fIg1zJIgNpnvR-101" edge="1">
          <mxGeometry relative="1" as="geometry">
            <mxPoint x="1270" y="1224" as="sourcePoint" />
            <mxPoint x="1580" y="1223" as="targetPoint" />
            <Array as="points" />
          </mxGeometry>
        </mxCell>
        <mxCell id="67706t7fIg1zJIgNpnvR-135" value="" style="rounded=0;html=1;jettySize=auto;orthogonalLoop=1;fontSize=11;endArrow=block;endFill=0;endSize=8;strokeWidth=1;shadow=0;labelBackgroundColor=none;edgeStyle=orthogonalEdgeStyle;entryX=0;entryY=0.5;entryDx=0;entryDy=0;" parent="WIyWlLk6GJQsqaUBKTNV-1" target="67706t7fIg1zJIgNpnvR-44" edge="1">
          <mxGeometry relative="1" as="geometry">
            <mxPoint x="620" y="732" as="sourcePoint" />
            <mxPoint x="634" y="585" as="targetPoint" />
            <Array as="points">
              <mxPoint x="620" y="570" />
            </Array>
          </mxGeometry>
        </mxCell>
        <mxCell id="67706t7fIg1zJIgNpnvR-136" value="" style="rounded=0;html=1;jettySize=auto;orthogonalLoop=1;fontSize=11;endArrow=block;endFill=0;endSize=8;strokeWidth=1;shadow=0;labelBackgroundColor=none;edgeStyle=orthogonalEdgeStyle;entryX=0;entryY=0.5;entryDx=0;entryDy=0;" parent="WIyWlLk6GJQsqaUBKTNV-1" edge="1">
          <mxGeometry relative="1" as="geometry">
            <mxPoint x="620" y="950" as="sourcePoint" />
            <mxPoint x="650" y="732.5" as="targetPoint" />
            <Array as="points">
              <mxPoint x="620" y="732.5" />
            </Array>
          </mxGeometry>
        </mxCell>
        <mxCell id="t7-j-hY-2dMga8Nwm9BI-0" value="No" style="text;html=1;align=center;verticalAlign=middle;whiteSpace=wrap;rounded=0;" parent="WIyWlLk6GJQsqaUBKTNV-1" vertex="1">
          <mxGeometry x="940" y="1139" width="60" height="30" as="geometry" />
        </mxCell>
        <mxCell id="t7-j-hY-2dMga8Nwm9BI-1" value="Yes" style="text;html=1;align=center;verticalAlign=middle;whiteSpace=wrap;rounded=0;" parent="WIyWlLk6GJQsqaUBKTNV-1" vertex="1">
          <mxGeometry x="885" y="1200" width="60" height="30" as="geometry" />
        </mxCell>
        <mxCell id="t7-j-hY-2dMga8Nwm9BI-4" value="Lands on enemy?" style="rhombus;whiteSpace=wrap;html=1;" parent="WIyWlLk6GJQsqaUBKTNV-1" vertex="1">
          <mxGeometry x="975" y="692" width="140" height="80" as="geometry" />
        </mxCell>
        <mxCell id="t7-j-hY-2dMga8Nwm9BI-8" value="Yes" style="text;html=1;align=center;verticalAlign=middle;whiteSpace=wrap;rounded=0;" parent="WIyWlLk6GJQsqaUBKTNV-1" vertex="1">
          <mxGeometry x="1115" y="702.5" width="60" height="30" as="geometry" />
        </mxCell>
        <mxCell id="t7-j-hY-2dMga8Nwm9BI-9" value="No" style="text;html=1;align=center;verticalAlign=middle;whiteSpace=wrap;rounded=0;" parent="WIyWlLk6GJQsqaUBKTNV-1" vertex="1">
          <mxGeometry x="1035" y="766.25" width="60" height="30" as="geometry" />
        </mxCell>
        <mxCell id="t7-j-hY-2dMga8Nwm9BI-10" value="No" style="text;html=1;align=center;verticalAlign=middle;whiteSpace=wrap;rounded=0;" parent="WIyWlLk6GJQsqaUBKTNV-1" vertex="1">
          <mxGeometry x="900" y="920" width="60" height="30" as="geometry" />
        </mxCell>
        <mxCell id="t7-j-hY-2dMga8Nwm9BI-11" value="Yes" style="text;html=1;align=center;verticalAlign=middle;whiteSpace=wrap;rounded=0;" parent="WIyWlLk6GJQsqaUBKTNV-1" vertex="1">
          <mxGeometry x="1035" y="1095" width="60" height="30" as="geometry" />
        </mxCell>
        <mxCell id="t7-j-hY-2dMga8Nwm9BI-17" value="" style="rounded=0;html=1;jettySize=auto;orthogonalLoop=1;fontSize=11;endArrow=block;endFill=0;endSize=8;strokeWidth=1;shadow=0;labelBackgroundColor=none;edgeStyle=orthogonalEdgeStyle;exitX=0;exitY=1;exitDx=0;exitDy=0;entryX=0;entryY=0.5;entryDx=0;entryDy=0;" parent="WIyWlLk6GJQsqaUBKTNV-1" source="t7-j-hY-2dMga8Nwm9BI-8" target="67706t7fIg1zJIgNpnvR-67" edge="1">
          <mxGeometry relative="1" as="geometry">
            <mxPoint x="1125" y="743" as="sourcePoint" />
            <mxPoint x="1160" y="810" as="targetPoint" />
            <Array as="points">
              <mxPoint x="1160" y="733" />
              <mxPoint x="1160" y="733" />
            </Array>
          </mxGeometry>
        </mxCell>
        <mxCell id="t7-j-hY-2dMga8Nwm9BI-18" value="Enemy walks into rain&amp;nbsp;&lt;div&gt;bomb&amp;nbsp;&lt;span style=&quot;background-color: initial;&quot;&gt;radius &amp;amp;&amp;amp; IsVisible&lt;/span&gt;&lt;/div&gt;" style="rhombus;whiteSpace=wrap;html=1;" parent="WIyWlLk6GJQsqaUBKTNV-1" vertex="1">
          <mxGeometry x="940" y="800" width="210" height="90" as="geometry" />
        </mxCell>
        <mxCell id="t7-j-hY-2dMga8Nwm9BI-19" value="" style="rounded=0;html=1;jettySize=auto;orthogonalLoop=1;fontSize=11;endArrow=block;endFill=0;endSize=8;strokeWidth=1;shadow=0;labelBackgroundColor=none;edgeStyle=orthogonalEdgeStyle;exitX=0.5;exitY=1;exitDx=0;exitDy=0;entryX=0.5;entryY=0;entryDx=0;entryDy=0;" parent="WIyWlLk6GJQsqaUBKTNV-1" source="t7-j-hY-2dMga8Nwm9BI-4" target="t7-j-hY-2dMga8Nwm9BI-18" edge="1">
          <mxGeometry relative="1" as="geometry">
            <mxPoint x="850" y="997" as="sourcePoint" />
            <mxPoint x="850" y="1034" as="targetPoint" />
          </mxGeometry>
        </mxCell>
        <mxCell id="t7-j-hY-2dMga8Nwm9BI-21" value="" style="rounded=0;html=1;jettySize=auto;orthogonalLoop=1;fontSize=11;endArrow=block;endFill=0;endSize=8;strokeWidth=1;shadow=0;labelBackgroundColor=none;edgeStyle=orthogonalEdgeStyle;exitX=1;exitY=0.5;exitDx=0;exitDy=0;entryX=0.5;entryY=1;entryDx=0;entryDy=0;" parent="WIyWlLk6GJQsqaUBKTNV-1" source="t7-j-hY-2dMga8Nwm9BI-18" target="67706t7fIg1zJIgNpnvR-67" edge="1">
          <mxGeometry relative="1" as="geometry">
            <mxPoint x="1125" y="743" as="sourcePoint" />
            <mxPoint x="1195" y="743" as="targetPoint" />
            <Array as="points">
              <mxPoint x="1235" y="845" />
            </Array>
          </mxGeometry>
        </mxCell>
        <mxCell id="t7-j-hY-2dMga8Nwm9BI-22" value="Yes" style="text;html=1;align=center;verticalAlign=middle;whiteSpace=wrap;rounded=0;" parent="WIyWlLk6GJQsqaUBKTNV-1" vertex="1">
          <mxGeometry x="1150" y="820" width="60" height="30" as="geometry" />
        </mxCell>
        <mxCell id="t7-j-hY-2dMga8Nwm9BI-24" value="" style="rounded=0;html=1;jettySize=auto;orthogonalLoop=1;fontSize=11;endArrow=block;endFill=0;endSize=8;strokeWidth=1;shadow=0;labelBackgroundColor=none;edgeStyle=orthogonalEdgeStyle;exitX=0.5;exitY=1;exitDx=0;exitDy=0;entryX=0;entryY=0.5;entryDx=0;entryDy=0;" parent="WIyWlLk6GJQsqaUBKTNV-1" source="67706t7fIg1zJIgNpnvR-62" target="67706t7fIg1zJIgNpnvR-71" edge="1">
          <mxGeometry relative="1" as="geometry">
            <mxPoint x="940" y="742" as="sourcePoint" />
            <mxPoint x="985" y="742" as="targetPoint" />
            <Array as="points">
              <mxPoint x="850" y="900" />
              <mxPoint x="1260" y="900" />
              <mxPoint x="1260" y="845" />
            </Array>
          </mxGeometry>
        </mxCell>
        <mxCell id="t7-j-hY-2dMga8Nwm9BI-25" value="" style="endArrow=none;html=1;rounded=0;entryX=0.5;entryY=1;entryDx=0;entryDy=0;" parent="WIyWlLk6GJQsqaUBKTNV-1" target="t7-j-hY-2dMga8Nwm9BI-18" edge="1">
          <mxGeometry width="50" height="50" relative="1" as="geometry">
            <mxPoint x="1045" y="900" as="sourcePoint" />
            <mxPoint x="1060" y="840" as="targetPoint" />
          </mxGeometry>
        </mxCell>
        <mxCell id="t7-j-hY-2dMga8Nwm9BI-26" value="No" style="text;html=1;align=center;verticalAlign=middle;whiteSpace=wrap;rounded=0;" parent="WIyWlLk6GJQsqaUBKTNV-1" vertex="1">
          <mxGeometry x="1060" y="877" width="60" height="30" as="geometry" />
        </mxCell>
        <mxCell id="t7-j-hY-2dMga8Nwm9BI-28" value="" style="endArrow=none;html=1;rounded=0;exitX=1;exitY=0.5;exitDx=0;exitDy=0;" parent="WIyWlLk6GJQsqaUBKTNV-1" source="67706t7fIg1zJIgNpnvR-71" edge="1">
          <mxGeometry width="50" height="50" relative="1" as="geometry">
            <mxPoint x="1400" y="870" as="sourcePoint" />
            <mxPoint x="1580" y="845" as="targetPoint" />
          </mxGeometry>
        </mxCell>
        <mxCell id="t7-j-hY-2dMga8Nwm9BI-29" value="" style="endArrow=none;html=1;rounded=0;exitX=1;exitY=0.5;exitDx=0;exitDy=0;" parent="WIyWlLk6GJQsqaUBKTNV-1" source="67706t7fIg1zJIgNpnvR-70" edge="1">
          <mxGeometry width="50" height="50" relative="1" as="geometry">
            <mxPoint x="1260" y="840" as="sourcePoint" />
            <mxPoint x="1580" y="733" as="targetPoint" />
          </mxGeometry>
        </mxCell>
        <mxCell id="9A7St6PpiWsbgQsc13d2-0" value="" style="rounded=0;html=1;jettySize=auto;orthogonalLoop=1;fontSize=11;endArrow=block;endFill=0;endSize=8;strokeWidth=1;shadow=0;labelBackgroundColor=none;edgeStyle=orthogonalEdgeStyle;exitX=1;exitY=0.5;exitDx=0;exitDy=0;entryX=0;entryY=0.5;entryDx=0;entryDy=0;" parent="WIyWlLk6GJQsqaUBKTNV-1" source="67706t7fIg1zJIgNpnvR-29" target="67706t7fIg1zJIgNpnvR-32" edge="1">
          <mxGeometry relative="1" as="geometry">
            <mxPoint x="780" y="265" as="sourcePoint" />
            <mxPoint x="850" y="265" as="targetPoint" />
          </mxGeometry>
        </mxCell>
      </root>
    </mxGraphModel>
  </diagram>
</mxfile>
